<?xml version="1.0" encoding="utf-8"?>
<svg version="1.1" id="DeftVisionSymbolFixed" xmlns="http://www.w3.org/2000/svg"
     xmlns:xlink="http://www.w3.org/1999/xlink" x="0px" y="0px"
     viewBox="-10 -10 253.3 251.4" xml:space="preserve">
  <style type="text/css">
    .st0{fill:#616163;}
    .st1{fill:#005192;}
  </style>
    <g>
    <g id="XMLID_387_">
      <g id="XMLID_878_">
        <path class="st0" d="M35.8,109.5v52.6h66.5c0,0,23.9-1.2,31.9-15.4l-14-21.7c0,0-6.7,15.6-18.3,15.6H62.6v-31.1L35.8,109.5z"/>
      </g>
        <g id="XMLID_881_">
        <path class="st1" d="M229.8,100.9l-10.3,14.8c0,0.3,0,0.7,0,1c0,56.9-46.3,103.3-103.3,103.3S13,173.7,13,116.7
          c0-6,0.6-11.9,1.6-17.7h78.3c18.5,0,27.6,16.2,27.6,16.2l26.8,39.2c5.9,10.8,17.2,9.4,17.2,9.4c7.9,0,15.5-10.4,15.5-10.4
          l44.4-62.8c0-0.1,0-0.1,0-0.2l2.5-3.6C213.7,38,169.1,2.1,116.3,2.1c-45.1,0-84.2,26.2-102.9,64.1h12.9
          c17.7-31.4,51.4-52.7,90-52.7c40.1,0,74.9,23,92,56.5l-45.4,65.8L142,102.9c-14-26.2-42.7-26.2-42.7-26.2h-89v0H8.8
          c-4.7,12.5-7.2,26-7.2,40C1.6,180,53,231.4,116.3,231.4S230.9,180,230.9,116.7C230.9,111.4,230.5,106.1,229.8,100.9z"/>
      </g>
    </g>
  </g>
</svg>
